<?xml version="1.0" encoding="UTF-8" standalone="no"?>
<svg
   viewBox="0 0 612 792"
   version="1.1"
   id="svg153"
   xmlns="http://www.w3.org/2000/svg"
   xmlns:svg="http://www.w3.org/2000/svg">
  <defs
     id="defs14">
    <clipPath
       id="clip1">
      <path
         d="M 1.078125 0 L 174.960938 0 L 174.960938 792 L 1.078125 792 Z M 1.078125 0 "
         id="path2" />
    </clipPath>
    <clipPath
       id="clip2">
      <path
         d="M 1.078125 0 L 610.921875 0 L 610.921875 208.921875 L 1.078125 208.921875 Z M 1.078125 0 "
         id="path5" />
    </clipPath>
    <clipPath
       id="clip3">
      <path
         d="M 228.359375 0 L 610.921875 0 L 610.921875 792 L 228.359375 792 Z M 228.359375 0 "
         id="path8" />
    </clipPath>
    <clipPath
       id="clip4">
      <path
         d="M 1.078125 79.679688 L 610.921875 79.679688 L 610.921875 792 L 1.078125 792 Z M 1.078125 79.679688 "
         id="path11" />
    </clipPath>
  </defs>
  <g
     id="surface1"
     style="stroke-width:2.12;stroke-dasharray:none">
    <path
       style="fill:none;stroke-width:2.82666667;stroke-linecap:round;stroke-linejoin:round;stroke:rgb(0%, 0%, 0%);stroke-opacity:1;stroke-miterlimit:10;stroke-dasharray:none"
       d="M 0.001877 -0.000406667 L 0.001877 427.19751 M 42.720627 -256.479573 L 42.720627 -0.000406667 M 85.439377 -427.359782 L 85.439377 -256.479573 M 0.001877 427.19751 L 128.158127 427.19751 "
       transform="matrix(0.75,0,0,0.75,190.439999,400.679993)"
       id="path16" />
    <path
       style="fill:none;stroke-width:2.82666667;stroke-linecap:round;stroke-linejoin:round;stroke:rgb(0%, 0%, 0%);stroke-opacity:1;stroke-miterlimit:10;stroke-dasharray:none"
       d="M 467.520833 961.4375 L 595.682292 961.4375 L 595.682292 534.239583 "
       transform="matrix(0.75,0,0,0.75,0,0)"
       id="path18" />
    <path
       style="fill:none;stroke-width:2.82666667;stroke-linecap:round;stroke-linejoin:round;stroke:rgb(0%, 0%, 0%);stroke-opacity:1;stroke-miterlimit:10;stroke-dasharray:none"
       d="M 552.958333 534.239583 L 552.958333 277.760417 "
       transform="matrix(0.75,0,0,0.75,0,0)"
       id="path20" />
    <path
       style="fill:none;stroke-width:2.82666667;stroke-linecap:round;stroke-linejoin:round;stroke:rgb(0%, 0%, 0%);stroke-opacity:1;stroke-miterlimit:10;stroke-dasharray:none"
       d="M 510.239583 277.760417 L 510.239583 106.880208 L 339.359375 106.880208 "
       transform="matrix(0.75,0,0,0.75,0,0)"
       id="path22" />
    <path
       style="fill:none;stroke-width:2.82666667;stroke-linecap:round;stroke-linejoin:bevel;stroke:rgb(0%, 0%, 0%);stroke-opacity:1;stroke-miterlimit:10;stroke-dasharray:none"
       d="M -0.001862 -0.002502 L 0.159596 3.997498 L 0.800221 7.841248 L 1.602305 11.67979 L 2.878346 15.362081 L 4.482513 19.039165 L 6.39918 22.559998 L 8.638763 25.757915 L 11.201263 28.799581 L 13.920013 31.518331 L 16.96168 34.080831 L 20.159596 36.320415 L 23.68043 38.24229 L 27.357513 39.841248 L 31.039805 41.122498 L 34.878346 41.919373 L 38.722096 42.559998 L 42.722096 42.721456 L 46.722096 42.559998 L 50.560638 41.919373 L 54.39918 41.122498 L 58.081471 39.841248 L 61.758555 38.24229 L 65.279388 36.320415 L 68.482513 34.080831 L 71.518971 31.518331 L 74.237721 28.799581 L 76.800221 25.757915 L 79.039805 22.559998 L 80.96168 19.039165 L 82.560638 15.362081 L 83.841888 11.67979 L 84.638763 7.841248 L 85.279388 3.997498 L 85.440846 -0.002502 "
       transform="matrix(0.75,0,0,0.75,286.55999,721.080002)"
       id="path24" />
    <path
       style="fill:none;stroke-width:2.82666667;stroke-linecap:round;stroke-linejoin:round;stroke:rgb(0%, 0%, 0%);stroke-opacity:1;stroke-miterlimit:10;stroke-dasharray:none"
       d="M 0.000421667 0.000211333 L 0.000421667 405.922086 M 0.000421667 448.640836 L 0.000421667 854.557503 M -63.999578 0.000211333 L -63.999578 520.479378 M -63.999578 563.198128 L -63.999578 897.281461 M 8.641047 0.000211333 L -8.478745 0.000211333 M -55.520412 0.000211333 L -72.640203 0.000211333 M 8.641047 854.557503 L -8.478745 854.557503 M -55.520412 897.281461 L -72.640203 897.281461 "
       transform="matrix(0.75,0,0,0.75,142.319996,80.159998)"
       id="path26" />
    <path
       style="fill:none;stroke-width:2.82666667;stroke-linecap:round;stroke-linejoin:round;stroke:rgb(0%, 0%, 0%);stroke-opacity:1;stroke-miterlimit:10;stroke-dasharray:none"
       d="M 194.078125 115.520833 L 189.760417 106.880208 L 185.598958 115.520833 "
       transform="matrix(0.75,0,0,0.75,0,0)"
       id="path28" />
    <path
       style="fill:none;stroke-width:2.82666667;stroke-linecap:round;stroke-linejoin:round;stroke:rgb(0%, 0%, 0%);stroke-opacity:1;stroke-miterlimit:10;stroke-dasharray:none"
       d="M 129.921875 115.520833 L 125.760417 106.880208 L 121.4375 115.520833 "
       transform="matrix(0.75,0,0,0.75,0,0)"
       id="path30" />
    <path
       style="fill:none;stroke-width:2.82666667;stroke-linecap:round;stroke-linejoin:round;stroke:rgb(0%, 0%, 0%);stroke-opacity:1;stroke-miterlimit:10;stroke-dasharray:none"
       d="M 194.078125 952.958333 L 189.760417 961.4375 L 185.598958 952.958333 "
       transform="matrix(0.75,0,0,0.75,0,0)"
       id="path32" />
    <path
       style="fill:none;stroke-width:2.82666667;stroke-linecap:round;stroke-linejoin:round;stroke:rgb(0%, 0%, 0%);stroke-opacity:1;stroke-miterlimit:10;stroke-dasharray:none"
       d="M 129.921875 995.682292 L 125.760417 1004.161458 L 121.4375 995.682292 "
       transform="matrix(0.75,0,0,0.75,0,0)"
       id="path34" />
    <g
       clip-path="url(#clip1)"
       clip-rule="nonzero"
       id="g38"
       style="stroke-width:2.12;stroke-dasharray:none" />
    <path
       style="fill:none;stroke:#000000;stroke-width:2.82667;stroke-linecap:round;stroke-linejoin:round;stroke-miterlimit:10;stroke-dasharray:none;stroke-opacity:1"
       d="m 260.6423,448.64144 h -16.96354 m -17.1198,0 h -17.11979 m -17.11979,0 h -17.11979 m -17.11979,0 h -16.95834 m -17.11979,0 h -17.11979 m -17.11979,0 H 72.642299 m -17.119792,0 H 38.558965 m -17.119791,0 H 4.319382 M 85.439174,405.91748 H 68.48084 m 123.83854,-897.27604 h 42.71875 m 85.44271,0 h 42.71875 m -170.88021,-8.47917 v 16.95834 m 170.88021,-16.95834 v 16.95834"
       transform="matrix(0.75,0,0,0.75,110.28,416.64001)"
       id="path42" />
    <path
       style="fill:none;stroke-width:2.82666667;stroke-linecap:round;stroke-linejoin:round;stroke:rgb(0%, 0%, 0%);stroke-opacity:1;stroke-miterlimit:10;stroke-dasharray:none"
       d="M 501.760417 59.838542 L 510.239583 64.161458 L 501.760417 68.479167 "
       transform="matrix(0.75,0,0,0.75,0,0)"
       id="path44" />
    <path
       style="fill:none;stroke-width:2.82666667;stroke-linecap:round;stroke-linejoin:round;stroke:rgb(0%, 0%, 0%);stroke-opacity:1;stroke-miterlimit:10;stroke-dasharray:none"
       d="M 347.838542 68.479167 L 339.359375 64.161458 L 347.838542 59.838542 "
       transform="matrix(0.75,0,0,0.75,0,0)"
       id="path46" />
    <g
       clip-path="url(#clip2)"
       clip-rule="nonzero"
       id="g54"
       style="stroke-width:2.12;stroke-dasharray:none">
      <path
         style="fill:none;stroke:#000000;stroke-width:2.82667;stroke-linecap:round;stroke-linejoin:round;stroke-miterlimit:10;stroke-dasharray:none;stroke-opacity:1"
         d="m -465.92147,260.48062 v 17.1198 m 153.92188,-17.1198 v 17.1198 m 0,-8.47917 h -34.23959 m -85.44271,0 h -34.23958"
         transform="matrix(0.75,0,0,0.75,610.32001,0.12)"
         id="path52" />
    </g>
    <path
       style="fill:none;stroke-width:2.82666667;stroke-linecap:round;stroke-linejoin:round;stroke:rgb(0%, 0%, 0%);stroke-opacity:1;stroke-miterlimit:10;stroke-dasharray:none"
       d="M 493.119792 264.958333 L 501.760417 269.28125 L 493.119792 273.598958 "
       transform="matrix(0.75,0,0,0.75,0,0)"
       id="path56" />
    <path
       style="fill:none;stroke-width:2.82666667;stroke-linecap:round;stroke-linejoin:round;stroke:rgb(0%, 0%, 0%);stroke-opacity:1;stroke-miterlimit:10;stroke-dasharray:none"
       d="M 356.479167 273.598958 L 347.838542 269.28125 L 356.479167 264.958333 "
       transform="matrix(0.75,0,0,0.75,0,0)"
       id="path58" />
    <path
       style="fill:none;stroke:#000000;stroke-width:2.82667;stroke-linecap:round;stroke-linejoin:round;stroke-miterlimit:10;stroke-dasharray:none;stroke-opacity:1"
       d="m 205.11793,302.08063 v 16.95833 m 0,-8.47917 H 85.440846 m -85.442708,0 H -119.67895 m 0,-8.47916 v 16.95833"
       transform="matrix(0.75,0,0,0.75,286.55999,217.92)"
       id="path64" />
    <path
       style="fill:none;stroke-width:2.82666667;stroke-linecap:round;stroke-linejoin:round;stroke:rgb(0%, 0%, 0%);stroke-opacity:1;stroke-miterlimit:10;stroke-dasharray:none"
       d="M 578.71875 596.802083 L 587.197917 601.119792 L 578.71875 605.4375 "
       transform="matrix(0.75,0,0,0.75,0,0)"
       id="path66" />
    <path
       style="fill:none;stroke-width:2.82666667;stroke-linecap:round;stroke-linejoin:round;stroke:rgb(0%, 0%, 0%);stroke-opacity:1;stroke-miterlimit:10;stroke-dasharray:none"
       d="M 271.041667 605.4375 L 262.401042 601.119792 L 271.041667 596.802083 "
       transform="matrix(0.75,0,0,0.75,0,0)"
       id="path68" />
    <g
       clip-path="url(#clip3)"
       clip-rule="nonzero"
       id="g76"
       style="stroke-width:2.12;stroke-dasharray:none">
      <path
         style="fill:none;stroke:#000000;stroke-width:2.82667;stroke-linecap:round;stroke-linejoin:round;stroke-miterlimit:10;stroke-dasharray:none;stroke-opacity:1"
         d="m 162.39918,-286.39854 v 17.11979 m 0,-8.47917 H 85.440846 m -85.442708,0 h -76.958333"
         transform="matrix(0.75,0,0,0.75,286.55999,466.92)"
         id="path74" />
    </g>
    <path
       style="fill:none;stroke-width:2.82666667;stroke-linecap:round;stroke-linejoin:round;stroke:rgb(0%, 0%, 0%);stroke-opacity:1;stroke-miterlimit:10;stroke-dasharray:none"
       d="M 535.838542 340.479167 L 544.479167 344.802083 L 535.838542 349.119792 "
       transform="matrix(0.75,0,0,0.75,0,0)"
       id="path78" />
    <path
       style="fill:none;stroke:#000000;stroke-width:2.82667;stroke-linecap:round;stroke-linejoin:round;stroke-miterlimit:10;stroke-dasharray:none;stroke-opacity:1"
       d="m 305.11979,336.16146 v 17.11979"
       transform="scale(0.75)"
       id="path84" />
    <path
       style="fill:none;stroke-width:2.82666667;stroke-linecap:round;stroke-linejoin:round;stroke:rgb(0%, 0%, 0%);stroke-opacity:1;stroke-miterlimit:10;stroke-dasharray:none"
       d="M 313.760417 349.119792 L 305.119792 344.802083 L 313.760417 340.479167 "
       transform="matrix(0.75,0,0,0.75,0,0)"
       id="path86" />
    <path
       style="fill:none;stroke-width:2.82666667;stroke-linecap:round;stroke-linejoin:round;stroke:rgb(0%, 0%, 0%);stroke-opacity:1;stroke-miterlimit:10;stroke-dasharray:none"
       d="M 544.479167 517.119792 L 544.479167 534.239583 M 544.479167 525.598958 L 467.520833 525.598958 M 382.078125 525.598958 L 305.119792 525.598958 "
       transform="matrix(0.75,0,0,0.75,0,0)"
       id="path88" />
    <path
       style="fill:none;stroke-width:2.82666667;stroke-linecap:round;stroke-linejoin:round;stroke:rgb(0%, 0%, 0%);stroke-opacity:1;stroke-miterlimit:10;stroke-dasharray:none"
       d="M 535.838542 521.28125 L 544.479167 525.598958 L 535.838542 529.921875 "
       transform="matrix(0.75,0,0,0.75,0,0)"
       id="path90" />
    <path
       style="fill:none;stroke:#000000;stroke-width:2.82667;stroke-linecap:round;stroke-linejoin:round;stroke-miterlimit:10;stroke-dasharray:none;stroke-opacity:1"
       d="m 305.11979,517.11979 v 17.11979"
       transform="scale(0.75)"
       id="path96" />
    <path
       style="fill:none;stroke-width:2.82666667;stroke-linecap:round;stroke-linejoin:round;stroke:rgb(0%, 0%, 0%);stroke-opacity:1;stroke-miterlimit:10;stroke-dasharray:none"
       d="M 313.760417 529.921875 L 305.119792 525.598958 L 313.760417 521.28125 "
       transform="matrix(0.75,0,0,0.75,0,0)"
       id="path98" />
    <path
       style="fill:none;stroke-width:2.82666667;stroke-linecap:round;stroke-linejoin:round;stroke:rgb(0%, 0%, 0%);stroke-opacity:1;stroke-miterlimit:10;stroke-dasharray:none"
       d="M -0.00209533 -0.000000000000227374 L -0.00209533 17.119792 M -0.00209533 8.479167 L -119.679179 8.479167 M -205.121887 8.479167 L -324.79897 8.479167 M -324.79897 -0.000000000000227374 L -324.79897 17.119792 "
       transform="matrix(0.75,0,0,0.75,440.400009,678)"
       id="path100" />
    <path
       style="fill:none;stroke-width:2.82666667;stroke-linecap:round;stroke-linejoin:round;stroke:rgb(0%, 0%, 0%);stroke-opacity:1;stroke-miterlimit:10;stroke-dasharray:none"
       d="M 578.71875 908.161458 L 587.197917 912.479167 L 578.71875 916.802083 "
       transform="matrix(0.75,0,0,0.75,0,0)"
       id="path102" />
    <path
       style="fill:none;stroke-width:2.82666667;stroke-linecap:round;stroke-linejoin:round;stroke:rgb(0%, 0%, 0%);stroke-opacity:1;stroke-miterlimit:10;stroke-dasharray:none"
       d="M 271.041667 916.802083 L 262.401042 912.479167 L 271.041667 908.161458 "
       transform="matrix(0.75,0,0,0.75,0,0)"
       id="path104" />
    <path
       style="fill:none;stroke:#000000;stroke-width:2.82667;stroke-linecap:round;stroke-linejoin:round;stroke-miterlimit:10;stroke-dasharray:none;stroke-opacity:1"
       d="m -47.03832,-827.03977 h -16.963542 m -17.119792,0 h -17.119791 m -17.119795,0 h -17.11979 m -17.11979,0 h -16.95833 m -47.04167,0 h -17.11979"
       transform="matrix(0.75,0,0,0.75,286.55999,700.43999)"
       id="path110" />
    <g
       clip-path="url(#clip4)"
       clip-rule="nonzero"
       id="g116"
       style="stroke-width:2.12;stroke-dasharray:none">
      <path
         style="fill:none;stroke:#000000;stroke-width:2.82667;stroke-linecap:round;stroke-linejoin:round;stroke-miterlimit:10;stroke-dasharray:none;stroke-opacity:1"
         d="M -34.079783,-21.281453 H -0.00165767 M -192.31937,-478.88041 h -42.71875 m 299.036462,0 H 106.7223 M 21.279592,-735.35958 h 42.71875 m -213.598962,0 h -42.71875 m 342.71875,-170.88021 v 209.59896 m 0,42.71875 v 175.04167 m 8.64063,0 h -17.11979"
         transform="matrix(0.75,0,0,0.75,366.71999,759.84)"
         id="path114" />
    </g>
    <path
       style="fill:none;stroke-width:2.82666667;stroke-linecap:round;stroke-linejoin:round;stroke:rgb(0%, 0%, 0%);stroke-opacity:1;stroke-miterlimit:10;stroke-dasharray:none"
       d="M 643.682292 525.598958 L 639.359375 534.239583 L 635.197917 525.598958 "
       transform="matrix(0.75,0,0,0.75,0,0)"
       id="path118" />
    <path
       style="fill:none;stroke-width:2.82666667;stroke-linecap:round;stroke-linejoin:round;stroke:rgb(0%, 0%, 0%);stroke-opacity:1;stroke-miterlimit:10;stroke-dasharray:none"
       d="M 578.71875 106.880208 L 578.71875 171.041667 M 578.71875 213.760417 L 578.71875 277.760417 M 587.197917 277.760417 L 570.078125 277.760417 "
       transform="matrix(0.75,0,0,0.75,0,0)"
       id="path120" />
    <path
       style="fill:none;stroke-width:2.82666667;stroke-linecap:round;stroke-linejoin:round;stroke:rgb(0%, 0%, 0%);stroke-opacity:1;stroke-miterlimit:10;stroke-dasharray:none"
       d="M 582.880208 269.28125 L 578.71875 277.760417 L 574.401042 269.28125 "
       transform="matrix(0.75,0,0,0.75,0,0)"
       id="path122" />
    <path
       style="fill:none;stroke-width:2.82666667;stroke-linecap:round;stroke-linejoin:round;stroke:rgb(0%, 0%, 0%);stroke-opacity:1;stroke-miterlimit:10;stroke-dasharray:none"
       d="M 587.197917 106.880208 L 570.078125 106.880208 "
       transform="matrix(0.75,0,0,0.75,0,0)"
       id="path124" />
    <path
       style="fill:none;stroke-width:2.82666667;stroke-linecap:round;stroke-linejoin:round;stroke:rgb(0%, 0%, 0%);stroke-opacity:1;stroke-miterlimit:10;stroke-dasharray:none"
       d="M 582.880208 115.520833 L 578.71875 106.880208 L 574.401042 115.520833 "
       transform="matrix(0.75,0,0,0.75,0,0)"
       id="path126" />
    <path
       style="fill:none;stroke-width:2.82666667;stroke-linecap:round;stroke-linejoin:round;stroke:rgb(0%, 0%, 0%);stroke-opacity:1;stroke-miterlimit:10;stroke-dasharray:none"
       d="M 648 106.880208 L 630.880208 106.880208 "
       transform="matrix(0.75,0,0,0.75,0,0)"
       id="path128" />
    <path
       style="fill:none;stroke-width:2.82666667;stroke-linecap:round;stroke-linejoin:round;stroke:rgb(0%, 0%, 0%);stroke-opacity:1;stroke-miterlimit:10;stroke-dasharray:none"
       d="M 643.682292 115.520833 L 639.359375 106.880208 L 635.197917 115.520833 "
       transform="matrix(0.75,0,0,0.75,0,0)"
       id="path130" />
    <path
       style="fill:none;stroke:#000000;stroke-width:2.82667;stroke-linecap:round;stroke-linejoin:round;stroke-miterlimit:10;stroke-dasharray:none;stroke-opacity:1"
       d="M 549.11979,106.88021 H 532"
       transform="scale(0.75)"
       id="path132" />
    <path
       style="fill:none;stroke:#000000;stroke-width:2.82667;stroke-linecap:round;stroke-linejoin:round;stroke-miterlimit:10;stroke-dasharray:none;stroke-opacity:1"
       d="M 21.43811,-252.3198 H 4.318318 M -9.442098,378.72186 v 17.11979 m 0,-8.64062 H -129.11918 m -85.44271,0 h -119.67708 m 0,-8.47917 v 17.11979"
       transform="matrix(0.75,0,0,0.75,447.48001,269.40001)"
       id="path140" />
    <path
       style="fill:none;stroke-width:2.82666667;stroke-linecap:round;stroke-linejoin:round;stroke:rgb(0%, 0%, 0%);stroke-opacity:1;stroke-miterlimit:10;stroke-dasharray:none"
       d="M 578.71875 742.239583 L 587.197917 746.401042 L 578.71875 750.71875 "
       transform="matrix(0.75,0,0,0.75,0,0)"
       id="path142" />
    <path
       style="fill:none;stroke-width:2.82666667;stroke-linecap:round;stroke-linejoin:round;stroke:rgb(0%, 0%, 0%);stroke-opacity:1;stroke-miterlimit:10;stroke-dasharray:none"
       d="M 271.041667 750.71875 L 262.401042 746.401042 L 271.041667 742.239583 "
       transform="matrix(0.75,0,0,0.75,0,0)"
       id="path144" />
  </g>
</svg>
