<?xml version="1.0" encoding="UTF-8" standalone="no"?>
<svg
   viewBox="0 0 612 792"
   version="1.1"
   id="svg1016"
   xmlns:sodipodi="http://sodipodi.sourceforge.net/DTD/sodipodi-0.dtd"
   xmlns="http://www.w3.org/2000/svg"
   xmlns:svg="http://www.w3.org/2000/svg">
  <defs
     id="defs853">
    <clipPath
       id="clip1">
      <path
         d="M 1.078125 0 L 610.921875 0 L 610.921875 792 L 1.078125 792 Z M 1.078125 0 "
         id="path850" />
    </clipPath>
  </defs>
  <g
     id="surface1"
     style="stroke-width:2.12;stroke-dasharray:none">
    <path
       style="fill:none;stroke-width:2.82666667;stroke-linecap:round;stroke-linejoin:round;stroke:rgb(0%, 0%, 0%);stroke-opacity:1;stroke-miterlimit:10;stroke-dasharray:none"
       d="M -0.001251 0.000211333 L -0.001251 854.557503 M 341.759166 512.802295 L 341.759166 854.557503 M 170.878957 0.000211333 L 170.878957 170.88042 M 235.040416 0.000211333 L 235.040416 53.437711 M 235.040416 96.16167 L 235.040416 170.88042 M -0.001251 854.557503 L 128.160207 854.557503 M 213.597707 854.557503 L 341.759166 854.557503 "
       transform="matrix(0.75,0,0,0.75,188.040001,80.159998)"
       id="path855" />
    <path
       style="fill:none;stroke-width:2.82666667;stroke-linecap:round;stroke-linejoin:round;stroke:rgb(0%, 0%, 0%);stroke-opacity:1;stroke-miterlimit:10;stroke-dasharray:none"
       d="M 507.041667 534.239583 L 507.041667 363.197917 L 421.598958 277.760417 "
       transform="matrix(0.75,0,0,0.75,0,0)"
       id="path857" />
    <path
       style="fill:none;stroke-width:2.82666667;stroke-linecap:round;stroke-linejoin:round;stroke:rgb(0%, 0%, 0%);stroke-opacity:1;stroke-miterlimit:10;stroke-dasharray:none"
       d="M 592.479167 619.682292 L 507.041667 534.239583 "
       transform="matrix(0.75,0,0,0.75,0,0)"
       id="path859" />
    <path
       style="fill:none;stroke-width:2.82666667;stroke-linecap:round;stroke-linejoin:bevel;stroke:rgb(0%, 0%, 0%);stroke-opacity:1;stroke-miterlimit:10;stroke-dasharray:none"
       d="M 0.000203333 -0.002502 L 0.161662 3.997498 L 0.802287 7.841248 L 1.599162 11.67979 L 2.880412 15.362081 L 4.47937 19.039165 L 6.401245 22.559998 L 8.640828 25.757915 L 11.19812 28.799581 L 13.922078 31.518331 L 16.958537 34.080831 L 20.161662 36.320415 L 23.682495 38.24229 L 27.359578 39.841248 L 31.04187 41.122498 L 34.880412 41.919373 L 38.718953 42.559998 L 42.718953 42.721456 L 46.718953 42.559998 L 50.557495 41.919373 L 54.401245 41.122498 L 58.078328 39.841248 L 61.76062 38.24229 L 65.281453 36.320415 L 68.47937 34.080831 L 71.521037 31.518331 L 74.239787 28.799581 L 76.802287 25.757915 L 79.04187 22.559998 L 80.958537 19.039165 L 82.557495 15.362081 L 83.838745 11.67979 L 84.640828 7.841248 L 85.281453 3.997498 L 85.437703 -0.002502 "
       transform="matrix(0.75,0,0,0.75,284.160004,721.080002)"
       id="path861" />
    <path
       style="fill:none;stroke-width:2.82666667;stroke-linecap:round;stroke-linejoin:round;stroke:rgb(0%, 0%, 0%);stroke-opacity:1;stroke-miterlimit:10;stroke-dasharray:none"
       d="M 0.002502 0.000211333 L 0.002502 405.922086 M 0.002502 448.640836 L 0.002502 854.557503 M -63.997498 0.000211333 L -63.997498 520.479378 M -63.997498 563.198128 L -63.997498 897.281461 M 8.637919 0.000211333 L -8.481873 0.000211333 M -55.518331 0.000211333 L -72.638123 0.000211333 M 8.637919 854.557503 L -8.481873 854.557503 M -55.518331 897.281461 L -72.638123 897.281461 "
       transform="matrix(0.75,0,0,0.75,139.919999,80.159998)"
       id="path863" />
    <path
       style="fill:none;stroke-width:2.82666667;stroke-linecap:round;stroke-linejoin:round;stroke:rgb(0%, 0%, 0%);stroke-opacity:1;stroke-miterlimit:10;stroke-dasharray:none"
       d="M 190.880208 115.520833 L 186.5625 106.880208 L 182.401042 115.520833 "
       transform="matrix(0.75,0,0,0.75,0,0)"
       id="path865" />
    <path
       style="fill:none;stroke-width:2.82666667;stroke-linecap:round;stroke-linejoin:round;stroke:rgb(0%, 0%, 0%);stroke-opacity:1;stroke-miterlimit:10;stroke-dasharray:none"
       d="M 126.880208 115.520833 L 122.5625 106.880208 L 118.239583 115.520833 "
       transform="matrix(0.75,0,0,0.75,0,0)"
       id="path867" />
    <path
       style="fill:none;stroke-width:2.82666667;stroke-linecap:round;stroke-linejoin:round;stroke:rgb(0%, 0%, 0%);stroke-opacity:1;stroke-miterlimit:10;stroke-dasharray:none"
       d="M 190.880208 952.958333 L 186.5625 961.4375 L 182.401042 952.958333 "
       transform="matrix(0.75,0,0,0.75,0,0)"
       id="path869" />
    <path
       style="fill:none;stroke-width:2.82666667;stroke-linecap:round;stroke-linejoin:round;stroke:rgb(0%, 0%, 0%);stroke-opacity:1;stroke-miterlimit:10;stroke-dasharray:none"
       d="M 126.880208 995.682292 L 122.5625 1004.161458 L 118.239583 995.682292 "
       transform="matrix(0.75,0,0,0.75,0,0)"
       id="path871" />
    <path
       style="fill:none;stroke:#000000;stroke-width:2.82667;stroke-linecap:round;stroke-linejoin:round;stroke-miterlimit:10;stroke-dasharray:none;stroke-opacity:1"
       d="m 260.63917,448.64144 h -16.95833 m -17.11979,0 h -17.1198 m -17.11979,0 h -17.11979 m -17.11979,0 h -16.96354 m -17.11979,0 h -17.1198 m -17.119788,0 H 72.639171 m -16.958334,0 H 38.561046 m -17.119792,0 H 4.321462 M 85.441254,405.91748 H 68.477712 m 38.401038,-897.27604 h 42.71875 m 85.44271,0 h 42.71875 m -170.88021,-8.47917 v 16.95834 m 170.88021,-16.95834 v 16.95834"
       transform="matrix(0.75,0,0,0.75,107.88,416.64001)"
       id="path881"
       sodipodi:nodetypes="cccccccccccccccccccccccccc" />
    <path
       style="fill:none;stroke-width:2.82666667;stroke-linecap:round;stroke-linejoin:round;stroke:rgb(0%, 0%, 0%);stroke-opacity:1;stroke-miterlimit:10;stroke-dasharray:none"
       d="M 413.119792 59.838542 L 421.598958 64.161458 L 413.119792 68.479167 "
       transform="matrix(0.75,0,0,0.75,0,0)"
       id="path883" />
    <path
       style="fill:none;stroke-width:2.82666667;stroke-linecap:round;stroke-linejoin:round;stroke:rgb(0%, 0%, 0%);stroke-opacity:1;stroke-miterlimit:10;stroke-dasharray:none"
       d="M 259.197917 68.479167 L 250.71875 64.161458 L 259.197917 59.838542 "
       transform="matrix(0.75,0,0,0.75,0,0)"
       id="path885" />
    <path
       style="fill:none;stroke:#000000;stroke-width:2.82667;stroke-linecap:round;stroke-linejoin:round;stroke-miterlimit:10;stroke-dasharray:none;stroke-opacity:1"
       d="m -34.242085,175.04063 v 17.11979 M 119.67979,175.04063 v 17.11979 m 0,-8.47917 H 85.440206 m -85.442708,0 h -34.239583"
       transform="matrix(0.75,0,0,0.75,220.08,64.199999)"
       id="path891"
       sodipodi:nodetypes="cccccccc" />
    <path
       style="fill:none;stroke-width:2.82666667;stroke-linecap:round;stroke-linejoin:round;stroke:rgb(0%, 0%, 0%);stroke-opacity:1;stroke-miterlimit:10;stroke-dasharray:none"
       d="M 404.479167 264.958333 L 413.119792 269.28125 L 404.479167 273.598958 "
       transform="matrix(0.75,0,0,0.75,0,0)"
       id="path893" />
    <path
       style="fill:none;stroke-width:2.82666667;stroke-linecap:round;stroke-linejoin:round;stroke:rgb(0%, 0%, 0%);stroke-opacity:1;stroke-miterlimit:10;stroke-dasharray:none"
       d="M 267.838542 273.598958 L 259.197917 269.28125 L 267.838542 264.958333 "
       transform="matrix(0.75,0,0,0.75,0,0)"
       id="path895" />
    <path
       style="fill:none;stroke:#000000;stroke-width:2.82667;stroke-linecap:round;stroke-linejoin:round;stroke-miterlimit:10;stroke-dasharray:none;stroke-opacity:1"
       d="m 290.56,344.79938 v 17.11979 m 0,-8.64063 H 170.87771 m -85.437504,0 H -34.242085 m 0,-8.47916 v 17.11979"
       transform="matrix(0.75,0,0,0.75,220.08,217.92)"
       id="path901"
       sodipodi:nodetypes="cccccccc" />
    <path
       style="fill:none;stroke-width:2.82666667;stroke-linecap:round;stroke-linejoin:round;stroke:rgb(0%, 0%, 0%);stroke-opacity:1;stroke-miterlimit:10;stroke-dasharray:none"
       d="M 575.520833 639.520833 L 584 643.838542 L 575.520833 648.161458 "
       transform="matrix(0.75,0,0,0.75,0,0)"
       id="path903" />
    <path
       style="fill:none;stroke-width:2.82666667;stroke-linecap:round;stroke-linejoin:round;stroke:rgb(0%, 0%, 0%);stroke-opacity:1;stroke-miterlimit:10;stroke-dasharray:none"
       d="M 267.838542 648.161458 L 259.197917 643.838542 L 267.838542 639.520833 "
       transform="matrix(0.75,0,0,0.75,0,0)"
       id="path905" />
    <path
       style="fill:none;stroke:#000000;stroke-width:2.82667;stroke-linecap:round;stroke-linejoin:round;stroke-miterlimit:10;stroke-dasharray:none;stroke-opacity:1"
       d="m 119.6825,-286.39982 v 17.11979 m 0,-8.47917 H 42.718953 m -85.4375,0 h -76.963543"
       transform="matrix(0.75,0,0,0.75,284.16,498.96002)"
       id="path911"
       sodipodi:nodetypes="cccccc" />
    <path
       style="fill:none;stroke-width:2.82666667;stroke-linecap:round;stroke-linejoin:round;stroke:rgb(0%, 0%, 0%);stroke-opacity:1;stroke-miterlimit:10;stroke-dasharray:none"
       d="M 490.078125 383.197917 L 498.5625 387.520833 L 490.078125 391.838542 "
       transform="matrix(0.75,0,0,0.75,0,0)"
       id="path913" />
    <path
       style="fill:none;stroke:#000000;stroke-width:2.82667;stroke-linecap:round;stroke-linejoin:round;stroke-miterlimit:10;stroke-dasharray:none;stroke-opacity:1"
       d="M 494.23958,106.88021 H 477.11979"
       transform="scale(0.75)"
       id="path919"
       sodipodi:nodetypes="cc" />
    <path
       style="fill:none;stroke-width:2.82666667;stroke-linecap:round;stroke-linejoin:round;stroke:rgb(0%, 0%, 0%);stroke-opacity:1;stroke-miterlimit:10;stroke-dasharray:none"
       d="M 490.078125 115.520833 L 485.760417 106.880208 L 481.4375 115.520833 "
       transform="matrix(0.75,0,0,0.75,0,0)"
       id="path921" />
    <path
       style="fill:none;stroke-width:2.82666667;stroke-linecap:round;stroke-linejoin:round;stroke:rgb(0%, 0%, 0%);stroke-opacity:1;stroke-miterlimit:10;stroke-dasharray:none"
       d="M 558.401042 106.880208 L 541.28125 106.880208 "
       transform="matrix(0.75,0,0,0.75,0,0)"
       id="path923" />
    <path
       style="fill:none;stroke-width:2.82666667;stroke-linecap:round;stroke-linejoin:round;stroke:rgb(0%, 0%, 0%);stroke-opacity:1;stroke-miterlimit:10;stroke-dasharray:none"
       d="M 554.078125 115.520833 L 549.760417 106.880208 L 545.598958 115.520833 "
       transform="matrix(0.75,0,0,0.75,0,0)"
       id="path925" />
    <path
       style="fill:none;stroke-width:2.82666667;stroke-linecap:round;stroke-linejoin:round;stroke:rgb(0%, 0%, 0%);stroke-opacity:1;stroke-miterlimit:10;stroke-dasharray:none"
       d="M 494.239583 277.760417 L 477.119792 277.760417 "
       transform="matrix(0.75,0,0,0.75,0,0)"
       id="path927" />
    <path
       style="fill:none;stroke-width:2.82666667;stroke-linecap:round;stroke-linejoin:round;stroke:rgb(0%, 0%, 0%);stroke-opacity:1;stroke-miterlimit:10;stroke-dasharray:none"
       d="M 490.078125 269.28125 L 485.760417 277.760417 L 481.4375 269.28125 "
       transform="matrix(0.75,0,0,0.75,0,0)"
       id="path929" />
    <path
       style="fill:none;stroke-width:2.82666667;stroke-linecap:round;stroke-linejoin:round;stroke:rgb(0%, 0%, 0%);stroke-opacity:1;stroke-miterlimit:10;stroke-dasharray:none"
       d="M 558.401042 363.197917 L 541.28125 363.197917 "
       transform="matrix(0.75,0,0,0.75,0,0)"
       id="path931" />
    <path
       style="fill:none;stroke-width:2.82666667;stroke-linecap:round;stroke-linejoin:round;stroke:rgb(0%, 0%, 0%);stroke-opacity:1;stroke-miterlimit:10;stroke-dasharray:none"
       d="M 554.078125 354.71875 L 549.760417 363.197917 L 545.598958 354.71875 "
       transform="matrix(0.75,0,0,0.75,0,0)"
       id="path933" />
    <path
       style="fill:none;stroke:#000000;stroke-width:2.82667;stroke-linecap:round;stroke-linejoin:round;stroke-miterlimit:10;stroke-dasharray:none;stroke-opacity:1"
       d="m 106.72041,64.48084 v 95.67708 M 170.88187,-96.159785 V 96.157924 m 0,42.723956 V 331.19959 M 235.03812,-96.159785 V 168.96001 m 0,42.71875 V 416.6423"
       transform="matrix(0.75,0,0,0.75,332.28001,152.28)"
       id="path939"
       sodipodi:nodetypes="cccccccccc" />
    <path
       style="fill:none;stroke:#000000;stroke-width:2.82667;stroke-linecap:round;stroke-linejoin:round;stroke-miterlimit:10;stroke-dasharray:none;stroke-opacity:1"
       d="M 549.76042,224.80208 V 106.88021 m 72.64062,0 H 605.4375"
       transform="scale(0.75)"
       id="path943"
       sodipodi:nodetypes="cccc" />
    <path
       style="fill:none;stroke-width:2.82666667;stroke-linecap:round;stroke-linejoin:round;stroke:rgb(0%, 0%, 0%);stroke-opacity:1;stroke-miterlimit:10;stroke-dasharray:none"
       d="M 618.239583 115.520833 L 613.921875 106.880208 L 609.598958 115.520833 "
       transform="matrix(0.75,0,0,0.75,0,0)"
       id="path945" />
    <path
       style="fill:none;stroke-width:2.82666667;stroke-linecap:round;stroke-linejoin:round;stroke:rgb(0%, 0%, 0%);stroke-opacity:1;stroke-miterlimit:10;stroke-dasharray:none"
       d="M 686.5625 106.880208 L 669.4375 106.880208 "
       transform="matrix(0.75,0,0,0.75,0,0)"
       id="path947" />
    <path
       style="fill:none;stroke-width:2.82666667;stroke-linecap:round;stroke-linejoin:round;stroke:rgb(0%, 0%, 0%);stroke-opacity:1;stroke-miterlimit:10;stroke-dasharray:none"
       d="M 682.239583 115.520833 L 678.078125 106.880208 L 673.760417 115.520833 "
       transform="matrix(0.75,0,0,0.75,0,0)"
       id="path949" />
    <path
       style="fill:none;stroke-width:2.82666667;stroke-linecap:round;stroke-linejoin:round;stroke:rgb(0%, 0%, 0%);stroke-opacity:1;stroke-miterlimit:10;stroke-dasharray:none"
       d="M 622.401042 534.239583 L 605.4375 534.239583 "
       transform="matrix(0.75,0,0,0.75,0,0)"
       id="path951" />
    <path
       style="fill:none;stroke-width:2.82666667;stroke-linecap:round;stroke-linejoin:round;stroke:rgb(0%, 0%, 0%);stroke-opacity:1;stroke-miterlimit:10;stroke-dasharray:none"
       d="M 618.239583 525.598958 L 613.921875 534.239583 L 609.598958 525.598958 "
       transform="matrix(0.75,0,0,0.75,0,0)"
       id="path953" />
    <path
       style="fill:none;stroke-width:2.82666667;stroke-linecap:round;stroke-linejoin:round;stroke:rgb(0%, 0%, 0%);stroke-opacity:1;stroke-miterlimit:10;stroke-dasharray:none"
       d="M 686.5625 619.682292 L 669.4375 619.682292 "
       transform="matrix(0.75,0,0,0.75,0,0)"
       id="path955" />
    <path
       style="fill:none;stroke-width:2.82666667;stroke-linecap:round;stroke-linejoin:round;stroke:rgb(0%, 0%, 0%);stroke-opacity:1;stroke-miterlimit:10;stroke-dasharray:none"
       d="M 682.239583 611.041667 L 678.078125 619.682292 L 673.760417 611.041667 "
       transform="matrix(0.75,0,0,0.75,0,0)"
       id="path957" />
    <path
       style="fill:none;stroke:#000000;stroke-width:2.82667;stroke-linecap:round;stroke-linejoin:round;stroke-miterlimit:10;stroke-dasharray:none;stroke-opacity:1"
       d="M 259.19792,378.88021 V 396"
       transform="scale(0.75)"
       id="path967"
       sodipodi:nodetypes="cc" />
    <path
       style="fill:none;stroke-width:2.82666667;stroke-linecap:round;stroke-linejoin:round;stroke:rgb(0%, 0%, 0%);stroke-opacity:1;stroke-miterlimit:10;stroke-dasharray:none"
       d="M 267.838542 391.838542 L 259.197917 387.520833 L 267.838542 383.197917 "
       transform="matrix(0.75,0,0,0.75,0,0)"
       id="path969" />
    <path
       style="fill:none;stroke-width:2.82666667;stroke-linecap:round;stroke-linejoin:round;stroke:rgb(0%, 0%, 0%);stroke-opacity:1;stroke-miterlimit:10;stroke-dasharray:none"
       d="M -0.00229867 -0.000406667 L -17.12209 -0.000406667 M -34.241882 -0.000406667 L -51.361674 -0.000406667 M -68.481465 -0.000406667 L -81.27834 -0.000406667 M 63.997701 85.442302 L 46.87791 85.442302 M 29.919576 85.442302 L 12.799785 85.442302 M -59.200215 -171.042073 L -74.241882 -171.042073 M -128.158549 -256.479573 L -145.27834 -256.479573 M -89.757507 -17.281657 L -89.757507 -0.161865 M -89.757507 -8.80249 L -166.721049 -8.80249 M -252.158549 -8.80249 L -329.12209 -8.80249 "
       transform="matrix(0.75,0,0,0.75,441.240005,400.679993)"
       id="path971" />
    <path
       style="fill:none;stroke-width:2.82666667;stroke-linecap:round;stroke-linejoin:round;stroke:rgb(0%, 0%, 0%);stroke-opacity:1;stroke-miterlimit:10;stroke-dasharray:none"
       d="M 490.078125 521.28125 L 498.5625 525.4375 L 490.078125 529.760417 "
       transform="matrix(0.75,0,0,0.75,0,0)"
       id="path973" />
    <path
       style="fill:none;stroke:#000000;stroke-width:2.82667;stroke-linecap:round;stroke-linejoin:round;stroke-miterlimit:10;stroke-dasharray:none;stroke-opacity:1"
       d="m 259.19792,516.95833 v 17.11979"
       transform="scale(0.75)"
       id="path979"
       sodipodi:nodetypes="cc" />
    <path
       style="fill:none;stroke-width:2.82666667;stroke-linecap:round;stroke-linejoin:round;stroke:rgb(0%, 0%, 0%);stroke-opacity:1;stroke-miterlimit:10;stroke-dasharray:none"
       d="M 267.838542 529.760417 L 259.197917 525.4375 L 267.838542 521.28125 "
       transform="matrix(0.75,0,0,0.75,0,0)"
       id="path981" />
    <path
       style="fill:none;stroke-width:2.82666667;stroke-linecap:round;stroke-linejoin:round;stroke:rgb(0%, 0%, 0%);stroke-opacity:1;stroke-miterlimit:10;stroke-dasharray:none"
       d="M -0.000000000000113687 -0.000000000000227374 L -0.000000000000113687 17.119792 M -0.000000000000113687 8.479167 L -119.682292 8.479167 M -205.119792 8.479167 L -324.802083 8.479167 M -324.802083 -0.000000000000227374 L -324.802083 17.119792 "
       transform="matrix(0.75,0,0,0.75,438,678)"
       id="path983" />
    <path
       style="fill:none;stroke-width:2.82666667;stroke-linecap:round;stroke-linejoin:round;stroke:rgb(0%, 0%, 0%);stroke-opacity:1;stroke-miterlimit:10;stroke-dasharray:none"
       d="M 575.520833 908.161458 L 584 912.479167 L 575.520833 916.802083 "
       transform="matrix(0.75,0,0,0.75,0,0)"
       id="path985" />
    <path
       style="fill:none;stroke-width:2.82666667;stroke-linecap:round;stroke-linejoin:round;stroke:rgb(0%, 0%, 0%);stroke-opacity:1;stroke-miterlimit:10;stroke-dasharray:none"
       d="M 267.838542 916.802083 L 259.197917 912.479167 L 267.838542 908.161458 "
       transform="matrix(0.75,0,0,0.75,0,0)"
       id="path987" />
    <path
       style="fill:none;stroke:#000000;stroke-width:2.82667;stroke-linecap:round;stroke-linejoin:round;stroke-miterlimit:10;stroke-dasharray:none;stroke-opacity:1"
       d="M 42.718953,-827.03977 H -128.16125 m -85.4375,0 h -17.1198 m 81.1198,0 h -16.96355 m 444.32292,0 h -17.11979 m -47.04167,0 h -16.95833 m -47.04167,0 h -17.11979 m -47.041667,0 H 68.317912"
       transform="matrix(0.75,0,0,0.75,284.16,700.43999)"
       id="path993"
       sodipodi:nodetypes="cccccccccccccc" />
    <path
       style="fill:none;stroke:#000000;stroke-width:2.82667;stroke-linecap:round;stroke-linejoin:round;stroke-miterlimit:10;stroke-dasharray:none;stroke-opacity:1"
       d="m 451.68229,991.83854 h 34.07813"
       transform="scale(0.75)"
       id="path997"
       sodipodi:nodetypes="cc" />
    <g
       clip-path="url(#clip1)"
       clip-rule="nonzero"
       id="g1001"
       style="stroke-width:2.12;stroke-dasharray:none" />
    <path
       style="fill:none;stroke-width:2.82666667;stroke-linecap:round;stroke-linejoin:round;stroke:rgb(0%, 0%, 0%);stroke-opacity:1;stroke-miterlimit:10;stroke-dasharray:none"
       d="M -0.000000000000113687 0.00061 L -0.000000000000113687 17.120402 M -0.000000000000113687 8.479777 L -119.682292 8.479777 M -205.119792 8.479777 L -324.802083 8.479777 M -324.802083 0.00061 L -324.802083 17.120402 "
       transform="matrix(0.75,0,0,0.75,438,585.480011)"
       id="path1003" />
    <path
       style="fill:none;stroke-width:2.82666667;stroke-linecap:round;stroke-linejoin:round;stroke:rgb(0%, 0%, 0%);stroke-opacity:1;stroke-miterlimit:10;stroke-dasharray:none"
       d="M 575.520833 784.958333 L 584 789.119792 L 575.520833 793.4375 "
       transform="matrix(0.75,0,0,0.75,0,0)"
       id="path1005" />
    <path
       style="fill:none;stroke-width:2.82666667;stroke-linecap:round;stroke-linejoin:round;stroke:rgb(0%, 0%, 0%);stroke-opacity:1;stroke-miterlimit:10;stroke-dasharray:none"
       d="M 267.838542 793.4375 L 259.197917 789.119792 L 267.838542 784.958333 "
       transform="matrix(0.75,0,0,0.75,0,0)"
       id="path1007" />
  </g>
</svg>
